HIERARCHY
ROOT Hips
{
 OFFSET 0.000000 0.000000 0.000000
 CHANNELS 6 Xposition Yposition Zposition Yrotation Xrotation Zrotation
 JOINT Chest
 {
  OFFSET 0.000000 9.812683 -0.003552
  CHANNELS 3 Yrotation Xrotation Zrotation
  JOINT Chest2
  {
   OFFSET 0.000000 9.777810 0.007248
   CHANNELS 3 Yrotation Xrotation Zrotation
   JOINT Chest3
   {
    OFFSET 0.000000 9.736392 0.000000
    CHANNELS 3 Yrotation Xrotation Zrotation
    JOINT Chest4
    {
     OFFSET 0.000000 9.726454 0.000000
     CHANNELS 3 Yrotation Xrotation Zrotation
     JOINT Neck
     {
      OFFSET 0.000000 14.679095 0.000000
      CHANNELS 3 Yrotation Xrotation Zrotation
      JOINT Head
      {
       OFFSET 0.000000 9.104124 0.015333
       CHANNELS 3 Yrotation Xrotation Zrotation
       End Site
       {
        OFFSET 0.000000 17.313862 0.008094
       }
      }
     }
     JOINT RightCollar
     {
      OFFSET -2.991841 9.728033 0.000000
      CHANNELS 3 Yrotation Xrotation Zrotation
      JOINT RightShoulder
      {
       OFFSET -14.105608 0.000000 0.000000
       CHANNELS 3 Yrotation Xrotation Zrotation
       JOINT RightElbow
       {
        OFFSET -30.920614 0.000000 0.000000
        CHANNELS 3 Yrotation Xrotation Zrotation
        JOINT RightWrist
        {
         OFFSET -25.011638 0.000000 0.000000
         CHANNELS 3 Yrotation Xrotation Zrotation
         End Site
         {
          OFFSET -18.498852 0.000000 0.000000
         }
        }
       }
      }
     }
     JOINT LeftCollar
     {
      OFFSET 2.991841 9.728033 0.000000
      CHANNELS 3 Yrotation Xrotation Zrotation
      JOINT LeftShoulder
      {
       OFFSET 14.105608 0.000000 0.000000
       CHANNELS 3 Yrotation Xrotation Zrotation
       JOINT LeftElbow
       {
        OFFSET 30.920614 0.000000 0.000000
        CHANNELS 3 Yrotation Xrotation Zrotation
        JOINT LeftWrist
        {
         OFFSET 25.011638 0.000000 0.000000
         CHANNELS 3 Yrotation Xrotation Zrotation
         End Site
         {
          OFFSET 18.498852 0.000000 0.000000
         }
        }
       }
      }
     }
    }
   }
  }
 }
 JOINT RightHip
 {
  OFFSET -8.005612 0.017580 0.001776
  CHANNELS 3 Yrotation Xrotation Zrotation
  JOINT RightKnee
  {
   OFFSET 0.000000 -41.413990 -0.001697
   CHANNELS 3 Yrotation Xrotation Zrotation
   JOINT RightAnkle
   {
    OFFSET 0.000000 -40.303361 -0.002870
    CHANNELS 3 Yrotation Xrotation Zrotation
    JOINT RightToe
    {
     OFFSET 0.000000 -7.855341 17.873357
     CHANNELS 3 Yrotation Xrotation Zrotation
     End Site
     {
      OFFSET 0.000000 -1.536332 6.874071
     }
    }
   }
  }
 }
 JOINT LeftHip
 {
  OFFSET 8.005612 0.017580 0.001776
  CHANNELS 3 Yrotation Xrotation Zrotation
  JOINT LeftKnee
  {
   OFFSET 0.000000 -41.413990 -0.001697
   CHANNELS 3 Yrotation Xrotation Zrotation
   JOINT LeftAnkle
   {
    OFFSET 0.000000 -40.303361 -0.002870
    CHANNELS 3 Yrotation Xrotation Zrotation
    JOINT LeftToe
    {
     OFFSET 0.000000 -7.855341 17.873357
     CHANNELS 3 Yrotation Xrotation Zrotation
     End Site
     {
      OFFSET 0.000000 -1.536332 6.874071
     }
    }
   }
  }
 }
}
MOTION
Frames: 5
Frame Time: 0.008333
-183.154243 87.747787 -40.809729 -150.843068 -5.706188 2.188764 6.542031 8.322538 -2.268246 0.451880 0.525852 -0.190059 0.776373 0.905607 -0.324421 6.203276 7.489149 -2.291991 34.025365 24.088731 -10.627789 49.003127 9.987694 -21.477611 0.616728 -0.186443 -6.282999 -15.598448 -11.760828 81.546494 113.504493 -30.463612 28.461928 25.994788 5.427911 -9.313526 -16.248311 1.878492 11.950551 5.498948 -45.680368 -81.609285 -40.617227 -20.957440 -25.706013 8.608043 -7.382772 -28.043879 -1.108261 10.697420 0.057256 -3.821465 20.482348 -11.477981 -17.380562 -20.514120 8.738901 -0.057799 0.486363 -0.057443 5.422973 -17.380103 1.426025 -10.020194 24.063930 0.009903 17.579601 0.853831 -8.801906 -0.033802 -0.179033 -0.000468
-183.129282 87.738981 -40.797146 -150.841340 -5.738561 2.189823 6.549392 8.328193 -2.250394 0.452580 0.526574 -0.189271 0.777557 0.906820 -0.323050 6.210147 7.494464 -2.278739 33.992040 24.080952 -10.625798 48.944551 9.958470 -21.468758 0.559566 -0.133951 -6.270486 -15.708322 -11.522086 81.579574 113.399265 -30.615882 28.635689 25.975741 5.342442 -9.331690 -16.285455 1.885565 11.903099 5.746861 -45.391363 -81.632940 -40.958610 -20.912353 -25.731131 8.597782 -7.353704 -27.997860 -1.129641 10.689715 0.066549 -3.820675 20.542018 -11.488992 -17.397515 -20.549201 8.749353 -0.049351 0.488275 -0.055166 5.367785 -17.381243 1.455333 -10.012578 24.087057 -0.011072 17.604816 0.870438 -8.813133 -0.034831 -0.179309 -0.001428
-183.105576 87.730353 -40.784201 -150.843760 -5.770111 2.197647 6.559493 8.335051 -2.236886 0.453465 0.527479 -0.188650 0.779051 0.908338 -0.321959 6.218078 7.500775 -2.267128 33.954685 24.074094 -10.624507 48.879255 9.928836 -21.459814 0.504595 -0.087414 -6.257482 -15.810412 -11.275313 81.611507 113.306322 -30.737217 28.792384 25.955644 5.254904 -9.350291 -16.317944 1.894635 11.858424 6.011104 -45.095813 -81.671032 -41.316247 -20.847668 -25.758078 8.596242 -7.301038 -27.979763 -1.157433 10.680491 0.066736 -3.818249 20.601192 -11.505263 -17.405400 -20.585062 8.764303 -0.049777 0.490986 -0.054900 5.336795 -17.381034 1.472175 -9.998438 24.107586 -0.024175 17.612018 0.888020 -8.819651 -0.035101 -0.180414 -0.003907
-183.082870 87.722178 -40.772325 -150.848738 -5.806522 2.206077 6.568425 8.342765 -2.220393 0.454184 0.528262 -0.187994 0.780264 0.909654 -0.320811 6.224643 7.506485 -2.255551 33.918688 24.066754 -10.622579 48.816114 9.898965 -21.450351 0.447171 -0.041184 -6.245473 -15.876396 -11.023650 81.631918 113.230963 -30.825001 28.909769 25.931322 5.174965 -9.375881 -16.328868 1.908030 11.812596 6.273630 -44.801070 -81.720955 -41.667067 -20.773220 -25.786327 8.605530 -7.231836 -27.996745 -1.188916 10.677776 0.061505 -3.820439 20.657473 -11.519481 -17.394505 -20.624002 8.770522 -0.047242 0.493290 -0.051042 5.334199 -17.373551 1.479462 -9.979139 24.124861 -0.025233 17.602335 0.904624 -8.819895 -0.034528 -0.180336 -0.008807
-183.060817 87.714589 -40.761568 -150.856321 -5.846783 2.211747 6.568974 8.347908 -2.198020 0.453967 0.528365 -0.186985 0.779906 0.909837 -0.319080 6.223955 7.509057 -2.241950 33.891516 24.058139 -10.621521 48.768762 9.872128 -21.444223 0.396909 0.006847 -6.239710 -15.893133 -10.768816 81.637448 113.164477 -30.880192 28.982123 25.906244 5.107877 -9.412579 -16.302914 1.927243 11.762383 6.525165 -44.513875 -81.779948 -41.992047 -20.697617 -25.819295 8.618228 -7.162274 -28.036515 -1.218659 10.679539 0.056046 -3.831782 20.711555 -11.529801 -17.371052 -20.663671 8.767544 -0.039480 0.494385 -0.043808 5.355192 -17.359722 1.481484 -9.956656 24.137879 -0.017231 17.585587 0.920169 -8.813626 -0.032653 -0.178095 -0.014729
